<svg width="52" height="49" viewBox="0 0 52 49" fill="none" xmlns="http://www.w3.org/2000/svg">
<g clip-path="url(#clip0_266_9901)">
<path d="M34.3639 0.509392C37.6953 0.510128 40.7642 2.31826 42.3793 5.23203L50.3586 19.6272C51.9327 22.4668 51.8872 25.9273 50.239 28.7246L41.5988 43.389C39.9507 46.1864 36.9457 47.9032 33.699 47.9024L17.2402 47.8988C13.9088 47.8981 10.84 46.09 9.22483 43.1762L1.24551 28.7811C-0.328556 25.9414 -0.283059 22.4809 1.36511 19.6836L10.0053 5.01917C11.6535 2.22184 14.6584 0.505044 17.9052 0.50576L34.3639 0.509392Z" fill="#ADB8C0" fill-opacity="0.24"/>
<mask id="mask0_266_9901" style="mask-type:alpha" maskUnits="userSpaceOnUse" x="0" y="0" width="52" height="48">
<path d="M34.3619 0.511346C37.6934 0.512081 40.7622 2.32021 42.3773 5.23399L50.3567 19.6291C51.9307 22.4688 51.8852 25.9293 50.237 28.7266L41.5969 43.391C39.9487 46.1883 36.9438 47.9051 33.697 47.9044L17.2383 47.9008C13.9068 47.9 10.838 46.0919 9.22288 43.1781L1.24355 28.783C-0.330508 25.9433 -0.285012 22.4828 1.36316 19.6855L10.0033 5.02112C11.6515 2.22379 14.6564 0.506997 17.9032 0.507714L34.3619 0.511346Z" fill="#ADB8C0"/>
</mask>
<g mask="url(#mask0_266_9901)">
<path fill-rule="evenodd" clip-rule="evenodd" d="M25.7795 48.286H8.32227C8.32227 38.6325 16.1378 30.8075 25.7795 30.8075C35.4206 30.8075 43.2361 38.6325 43.2361 48.286H25.7795ZM25.7795 13.3164C30.1181 13.3164 33.6349 16.8378 33.6349 21.1815C33.6349 25.5256 30.1179 29.0471 25.7795 29.0471C21.4407 29.0471 17.9234 25.5257 17.9234 21.1815C17.9234 16.838 21.4405 13.3164 25.7795 13.3164Z" fill="#ADB8C0"/>
</g>
<circle cx="41" cy="42" r="4" fill="white"/>
<g clip-path="url(#clip1_266_9901)">
<path d="M40.8333 36C37.6116 36 35 38.6116 35 41.8333C35 45.0551 37.6116 47.6667 40.8333 47.6667C44.0551 47.6667 46.6667 45.0551 46.6667 41.8333C46.6667 38.6116 44.0551 36 40.8333 36ZM43.75 42.4167H41.4167V44.75H40.25V42.4167H37.9167V41.25H40.25V38.9167H41.4167V41.25H43.75V42.4167Z" fill="black"/>
</g>
</g>
<defs>
<clipPath id="clip0_266_9901">
<rect width="51.5891" height="48" fill="white" transform="translate(0.205078 0.0878906)"/>
</clipPath>
<clipPath id="clip1_266_9901">
<rect width="11.6667" height="11.6667" fill="white" transform="translate(35 36)"/>
</clipPath>
</defs>
</svg>
