<svg width="28" height="28" viewBox="0 0 28 28" fill="none" xmlns="http://www.w3.org/2000/svg">
<rect width="28" height="28" rx="14" fill="#E64646"/>
<path d="M10.3132 9.2253C10.0128 8.9249 9.52571 8.9249 9.2253 9.2253C8.9249 9.52571 8.9249 10.0128 9.2253 10.3132L12.9121 14L9.2253 17.6868C8.9249 17.9872 8.9249 18.4743 9.2253 18.7747C9.52571 19.0751 10.0128 19.0751 10.3132 18.7747L14 15.0879L17.6868 18.7747C17.9872 19.0751 18.4743 19.0751 18.7747 18.7747C19.0751 18.4743 19.0751 17.9872 18.7747 17.6868L15.0879 14L18.7747 10.3132C19.0751 10.0128 19.0751 9.52571 18.7747 9.2253C18.4743 8.9249 17.9872 8.9249 17.6868 9.2253L14 12.9121L10.3132 9.2253Z" fill="white"/>
</svg>
