<svg width="48" height="48" viewBox="0 0 48 48" fill="none" xmlns="http://www.w3.org/2000/svg">
<path d="M46.6275 6.5621C45.9214 5.85476 44.7757 5.85354 44.0695 6.5591L22.3671 28.2043L14.5369 19.6999C13.8603 18.9655 12.7163 18.9179 11.9807 19.5944C11.2456 20.271 11.1985 21.4155 11.8751 22.1506L20.9807 32.0394C21.3142 32.4019 21.7808 32.6123 22.2729 32.6225C22.2862 32.6231 22.2989 32.6231 22.3116 32.6231C22.7898 32.6231 23.2498 32.4332 23.5887 32.0955L46.6239 9.12063C47.3318 8.41517 47.3331 7.26945 46.6275 6.5621Z" fill="#27AE60"/>
<path d="M46.1909 22.1909C45.1917 22.1909 44.3819 23.0007 44.3819 24C44.3819 35.239 35.239 44.3819 24 44.3819C12.7616 44.3819 3.61809 35.239 3.61809 24C3.61809 12.7616 12.7616 3.61809 24 3.61809C24.9992 3.61809 25.8091 2.80828 25.8091 1.80909C25.8091 0.809813 24.9992 0 24 0C10.7662 0 0 10.7662 0 24C0 37.2332 10.7662 48 24 48C37.2332 48 48 37.2332 48 24C48 23.0008 47.1902 22.1909 46.1909 22.1909Z" fill="#27AE60"/>
</svg>
