<svg width="58" height="58" viewBox="0 0 58 58" fill="none" xmlns="http://www.w3.org/2000/svg">
<path d="M29 42.4441C21.5871 42.4441 15.5561 36.413 15.5561 29.0001C15.5561 21.5872 21.5871 15.5561 29 15.5561C36.4129 15.5561 42.444 21.5872 42.444 29.0001C42.444 36.413 36.4129 42.4441 29 42.4441Z" stroke="#C80925" stroke-width="4" stroke-miterlimit="10"/>
<path d="M32.3611 25.639C32.3611 27.4953 30.8562 29 29.0001 29C27.1439 29 25.6391 27.4953 25.6391 25.639C25.6391 23.7827 27.1439 22.278 29.0001 22.278C30.8562 22.278 32.3611 23.7827 32.3611 25.639Z" stroke="#C80925" stroke-width="4" stroke-miterlimit="10"/>
<path d="M22.2782 40.6396V39.0829C22.2782 35.3705 25.2877 32.361 29.0002 32.361C32.7126 32.361 35.7222 35.3705 35.7222 39.0829V40.6396" stroke="#C80925" stroke-width="4" stroke-miterlimit="10"/>
<path d="M15.444 8.7221C15.444 12.4345 12.4344 15.4441 8.72199 15.4441C5.00955 15.4441 2 12.4345 2 8.7221C2 5.00966 5.00955 2.00011 8.72199 2.00011C12.4344 2.00011 15.444 5.00966 15.444 8.7221Z" stroke="#C80925" stroke-width="4" stroke-miterlimit="10"/>
<path d="M56 8.7221C56 12.4345 52.9905 15.4441 49.2781 15.4441C45.5656 15.4441 42.5561 12.4345 42.5561 8.7221C42.5561 5.00966 45.5656 2.00011 49.2781 2.00011C52.9905 2.00011 56 5.00966 56 8.7221Z" stroke="#C80925" stroke-width="4" stroke-miterlimit="10"/>
<path d="M15.444 49.278C15.444 52.9905 12.4344 56 8.72199 56C5.00955 56 2 52.9905 2 49.278C2 45.5656 5.00955 42.556 8.72199 42.556C12.4344 42.556 15.444 45.5656 15.444 49.278Z" stroke="#C80925" stroke-width="4" stroke-miterlimit="10"/>
<path d="M56 49.278C56 52.9905 52.9905 56 49.2781 56C45.5656 56 42.5561 52.9905 42.5561 49.278C42.5561 45.5656 45.5656 42.556 49.2781 42.556C52.9905 42.556 56 45.5656 56 49.278Z" stroke="#C80925" stroke-width="4" stroke-miterlimit="10"/>
<path d="M13.4751 44.5249L19.4981 38.5019" stroke="#C80925" stroke-width="4" stroke-miterlimit="10"/>
<path d="M38.5016 38.5019L44.5247 44.5249" stroke="#C80925" stroke-width="4" stroke-miterlimit="10"/>
<path d="M44.5249 13.4753L38.5019 19.4983" stroke="#C80925" stroke-width="4" stroke-miterlimit="10"/>
<path d="M19.4981 19.4983L13.4751 13.4753" stroke="#C80925" stroke-width="4" stroke-miterlimit="10"/>
</svg>
