<svg width="22" height="22" viewBox="0 0 22 22" fill="none" xmlns="http://www.w3.org/2000/svg">
<path fill-rule="evenodd" clip-rule="evenodd" d="M14.8982 0.693148C15.3422 0.249326 15.9442 0 16.572 0C17.1997 0 17.8017 0.249326 18.2457 0.693148L21.3068 3.75423C21.7506 4.1982 22 4.80024 22 5.428C22 6.05576 21.7506 6.65782 21.3068 7.10178L19.4295 8.97915L13.0208 2.57052L14.8982 0.693148ZM11.3471 4.24429L0.693655 14.8977C0.249645 15.3416 0.000130208 15.9436 0 16.5715V19.6326C0 20.2604 0.24942 20.8626 0.693407 21.3066C1.13738 21.7506 1.73955 22 2.36742 22H5.4285C6.05633 21.9999 6.65839 21.7504 7.10227 21.3063L17.7557 10.6529L11.3471 4.24429Z" fill="#898A8D"/>
</svg>
