<svg width="27" height="27" viewBox="0 0 27 27" fill="none" xmlns="http://www.w3.org/2000/svg">
<path d="M11.5872 15.8987L8.65673 12.9683C8.40972 12.7212 8.10656 12.5977 7.74727 12.5977C7.38797 12.5977 7.07359 12.7325 6.80412 13.0019C6.55711 13.249 6.4336 13.5633 6.4336 13.9451C6.4336 14.3268 6.55711 14.6412 6.80412 14.8882L10.6441 18.7282C10.8911 18.9752 11.2055 19.0987 11.5872 19.0987C11.969 19.0987 12.2833 18.9752 12.5304 18.7282L20.1766 11.082C20.4236 10.8349 20.5471 10.5318 20.5471 10.1725C20.5471 9.81321 20.4124 9.49883 20.1429 9.22935C19.8959 8.98234 19.5815 8.85883 19.1998 8.85883C18.818 8.85883 18.5036 8.98234 18.2566 9.22935L11.5872 15.8987ZM13.4735 26.947C11.6097 26.947 9.85812 26.5931 8.21884 25.8853C6.57956 25.1784 5.15362 24.2186 3.941 23.006C2.72839 21.7934 1.76862 20.3675 1.06171 18.7282C0.353904 17.0889 0 15.3373 0 13.4735C0 11.6097 0.353904 9.85812 1.06171 8.21884C1.76862 6.57956 2.72839 5.15362 3.941 3.941C5.15362 2.72839 6.57956 1.76817 8.21884 1.06037C9.85812 0.353455 11.6097 0 13.4735 0C15.3373 0 17.0889 0.353455 18.7282 1.06037C20.3675 1.76817 21.7934 2.72839 23.006 3.941C24.2186 5.15362 25.1784 6.57956 25.8853 8.21884C26.5931 9.85812 26.947 11.6097 26.947 13.4735C26.947 15.3373 26.5931 17.0889 25.8853 18.7282C25.1784 20.3675 24.2186 21.7934 23.006 23.006C21.7934 24.2186 20.3675 25.1784 18.7282 25.8853C17.0889 26.5931 15.3373 26.947 13.4735 26.947Z" fill="white" fillOpacity="0.5"/>
</svg>
