<svg width="20" height="19" viewBox="0 0 20 19" fill="none" xmlns="http://www.w3.org/2000/svg">
<path d="M15.1586 2.55714V8.72857C15.1586 9.27416 14.9417 9.7974 14.5556 10.1832C14.1695 10.569 13.6458 10.7857 13.0998 10.7857H5.20747C4.98474 10.7857 4.76801 10.8579 4.58983 10.9914L1.57036 13.2543C1.49389 13.3116 1.40296 13.3465 1.30776 13.3551C1.21255 13.3636 1.11684 13.3456 1.03135 13.3028C0.945853 13.2601 0.87395 13.1945 0.823697 13.1132C0.773444 13.032 0.746826 12.9384 0.746826 12.8429V2.55714C0.746826 2.01155 0.963737 1.48831 1.34984 1.10252C1.73595 0.716734 2.25962 0.5 2.80565 0.5H13.0998C13.6458 0.5 14.1695 0.716734 14.5556 1.10252C14.9417 1.48831 15.1586 2.01155 15.1586 2.55714ZM19.2762 7.7C19.2762 7.15441 19.0593 6.63117 18.6732 6.24538C18.2871 5.85959 17.7634 5.64286 17.2174 5.64286H16.7027V8.72857C16.7027 9.20133 16.6095 9.66946 16.4285 10.1062C16.2474 10.543 15.982 10.9399 15.6474 11.2742C15.3129 11.6084 14.9157 11.8736 14.4786 12.0545C14.0414 12.2355 13.5729 12.3286 13.0998 12.3286H4.86447V13.8714C4.86447 14.417 5.08138 14.9403 5.46749 15.326C5.85359 15.7118 6.37726 15.9286 6.9233 15.9286H14.8154C15.0381 15.9286 15.2548 16.0008 15.433 16.1343L18.4527 18.3971C18.5292 18.4544 18.6201 18.4893 18.7153 18.4979C18.8105 18.5065 18.9062 18.4884 18.9917 18.4457C19.0772 18.403 19.1491 18.3373 19.1994 18.2561C19.2496 18.1748 19.2762 18.0812 19.2762 17.9857V7.7Z" fill="white"/>
</svg>
