<svg width="13" height="13" viewBox="0 0 13 13" fill="none" xmlns="http://www.w3.org/2000/svg">
<path d="M6.25 9.375C6.42708 9.375 6.57563 9.315 6.69563 9.195C6.81521 9.07542 6.875 8.92708 6.875 8.75V6.23438C6.875 6.05729 6.81521 5.91146 6.69563 5.79688C6.57563 5.68229 6.42708 5.625 6.25 5.625C6.07292 5.625 5.92458 5.68479 5.805 5.80437C5.685 5.92437 5.625 6.07292 5.625 6.25V8.76562C5.625 8.94271 5.685 9.08854 5.805 9.20312C5.92458 9.31771 6.07292 9.375 6.25 9.375ZM6.25 4.375C6.42708 4.375 6.57563 4.315 6.69563 4.195C6.81521 4.07542 6.875 3.92708 6.875 3.75C6.875 3.57292 6.81521 3.42438 6.69563 3.30438C6.57563 3.18479 6.42708 3.125 6.25 3.125C6.07292 3.125 5.92458 3.18479 5.805 3.30438C5.685 3.42438 5.625 3.57292 5.625 3.75C5.625 3.92708 5.685 4.07542 5.805 4.195C5.92458 4.315 6.07292 4.375 6.25 4.375ZM6.25 12.5C5.38542 12.5 4.57292 12.3358 3.8125 12.0075C3.05208 11.6796 2.39062 11.2344 1.82813 10.6719C1.26563 10.1094 0.820417 9.44792 0.4925 8.6875C0.164167 7.92708 0 7.11458 0 6.25C0 5.38542 0.164167 4.57292 0.4925 3.8125C0.820417 3.05208 1.26563 2.39062 1.82813 1.82813C2.39062 1.26563 3.05208 0.820208 3.8125 0.491875C4.57292 0.163958 5.38542 0 6.25 0C7.11458 0 7.92708 0.163958 8.6875 0.491875C9.44792 0.820208 10.1094 1.26563 10.6719 1.82813C11.2344 2.39062 11.6796 3.05208 12.0075 3.8125C12.3358 4.57292 12.5 5.38542 12.5 6.25C12.5 7.11458 12.3358 7.92708 12.0075 8.6875C11.6796 9.44792 11.2344 10.1094 10.6719 10.6719C10.1094 11.2344 9.44792 11.6796 8.6875 12.0075C7.92708 12.3358 7.11458 12.5 6.25 12.5Z" fill="white" fill-opacity="0.75"/>
</svg>
