<svg width="14" height="10" viewBox="0 0 14 10" fill="none" xmlns="http://www.w3.org/2000/svg">
<path d="M13.2106 4.71013C12.6307 2.08814 11.7578 0.688684 10.4631 0.306418C10.191 0.226588 9.90866 0.186705 9.62503 0.18802C9.25015 0.18802 8.92367 0.279348 8.57832 0.376145C8.16214 0.492902 7.68937 0.62552 7.00003 0.62552C6.3107 0.62552 5.83765 0.493176 5.42066 0.376418C5.07504 0.279348 4.74882 0.18802 4.37503 0.18802C4.08175 0.187003 3.78975 0.226758 3.50742 0.306145C2.21953 0.68677 1.34726 2.08568 0.758825 4.70849C0.126091 7.53091 0.437536 9.3129 1.63218 9.72634C1.79594 9.78406 1.96824 9.81382 2.14187 9.81438C2.96027 9.81438 3.61652 9.1327 4.06496 8.57462C4.57164 7.94298 5.16472 7.62251 7.00003 7.62251C8.63929 7.62251 9.31769 7.84481 9.90367 8.57462C10.272 9.03345 10.6201 9.35446 10.9673 9.55653C11.4292 9.82505 11.8907 9.88466 12.3389 9.73071C13.0449 9.48981 13.4496 8.85298 13.542 7.83743C13.6123 7.05868 13.504 6.03575 13.2106 4.71013ZM5.68753 4.56302H4.81253V5.43802C4.81253 5.55405 4.76644 5.66533 4.68439 5.74738C4.60235 5.82942 4.49107 5.87552 4.37503 5.87552C4.259 5.87552 4.14772 5.82942 4.06568 5.74738C3.98363 5.66533 3.93754 5.55405 3.93754 5.43802V4.56302H3.06254C2.9465 4.56302 2.83522 4.51692 2.75318 4.43488C2.67113 4.35283 2.62504 4.24155 2.62504 4.12552C2.62504 4.00949 2.67113 3.89821 2.75318 3.81616C2.83522 3.73411 2.9465 3.68802 3.06254 3.68802H3.93754V2.81302C3.93754 2.69699 3.98363 2.58571 4.06568 2.50366C4.14772 2.42161 4.259 2.37552 4.37503 2.37552C4.49107 2.37552 4.60235 2.42161 4.68439 2.50366C4.76644 2.58571 4.81253 2.69699 4.81253 2.81302V3.68802H5.68753C5.80357 3.68802 5.91485 3.73411 5.99689 3.81616C6.07894 3.89821 6.12503 4.00949 6.12503 4.12552C6.12503 4.24155 6.07894 4.35283 5.99689 4.43488C5.91485 4.51692 5.80357 4.56302 5.68753 4.56302ZM7.98441 4.67239C7.87625 4.67239 7.77051 4.64032 7.68058 4.58023C7.59065 4.52014 7.52055 4.43473 7.47916 4.3348C7.43777 4.23487 7.42694 4.12491 7.44804 4.01883C7.46914 3.91274 7.52123 3.8153 7.59771 3.73882C7.67419 3.66234 7.77164 3.61025 7.87772 3.58915C7.9838 3.56805 8.09376 3.57888 8.19369 3.62027C8.29362 3.66166 8.37903 3.73176 8.43912 3.82169C8.49921 3.91162 8.53128 4.01736 8.53128 4.12552C8.53128 4.27056 8.47367 4.40966 8.37111 4.51222C8.26855 4.61478 8.12945 4.67239 7.98441 4.67239ZM9.18753 5.87552C9.07931 5.87552 8.97353 5.84341 8.88357 5.78326C8.7936 5.7231 8.72351 5.63761 8.68216 5.53761C8.64081 5.4376 8.63006 5.32757 8.65127 5.22145C8.67248 5.11533 8.7247 5.01789 8.80132 4.94146C8.87794 4.86503 8.97551 4.81306 9.08169 4.79211C9.18786 4.77116 9.29786 4.78219 9.39776 4.82379C9.49767 4.86539 9.58298 4.9357 9.64291 5.02581C9.70284 5.11592 9.73468 5.22179 9.73441 5.33001C9.73405 5.47481 9.67627 5.61356 9.57375 5.71583C9.47123 5.81809 9.33234 5.87552 9.18753 5.87552ZM9.18753 3.46927C9.07937 3.46927 8.97364 3.4372 8.88371 3.3771C8.79377 3.31701 8.72368 3.2316 8.68229 3.13167C8.6409 3.03175 8.63007 2.92179 8.65117 2.8157C8.67227 2.70962 8.72435 2.61218 8.80083 2.5357C8.87732 2.45921 8.97476 2.40713 9.08084 2.38603C9.18693 2.36493 9.29689 2.37576 9.39681 2.41715C9.49674 2.45854 9.58215 2.52863 9.64224 2.61857C9.70234 2.7085 9.73441 2.81423 9.73441 2.92239C9.73441 3.06743 9.67679 3.20653 9.57423 3.30909C9.47167 3.41165 9.33257 3.46927 9.18753 3.46927ZM10.3907 4.67239C10.2825 4.67239 10.1768 4.64032 10.0868 4.58023C9.9969 4.52014 9.9268 4.43473 9.88541 4.3348C9.84402 4.23487 9.83319 4.12491 9.85429 4.01883C9.87539 3.91274 9.92748 3.8153 10.004 3.73882C10.0804 3.66234 10.1779 3.61025 10.284 3.58915C10.3901 3.56805 10.5 3.57888 10.5999 3.62027C10.6999 3.66166 10.7853 3.73176 10.8454 3.82169C10.9055 3.91162 10.9375 4.01736 10.9375 4.12552C10.9375 4.27056 10.8799 4.40966 10.7774 4.51222C10.6748 4.61478 10.5357 4.67239 10.3907 4.67239Z" fill="#ADB8C0"/>
</svg>
