<svg width="33" height="33" viewBox="0 0 33 33" fill="none" xmlns="http://www.w3.org/2000/svg">
<path d="M27.7271 -0.0778656C27.2637 -0.0778656 26.8226 0.13221 26.4519 0.50293L25.5646 1.35188L30.7769 6.56422L31.6271 5.67696C32.3686 4.93552 32.3686 3.83077 31.6271 3.08933L29.0395 0.501695C28.6688 0.130974 28.1905 -0.0778656 27.7271 -0.0778656ZM24.7144 2.08591L23.3625 3.20672L28.9233 8.76753L30.1591 7.5318L24.7144 2.08591ZM22.6285 4.09398L11.4698 15.139C11.4133 15.1856 11.3612 15.2373 11.3141 15.2935L11.2375 15.3318C11.1027 15.4862 11.0096 15.6725 10.9669 15.873L9.4605 21.1632C9.39594 21.3726 9.3897 21.5956 9.44245 21.8083C9.49521 22.021 9.60496 22.2152 9.7599 22.3702C9.91484 22.5251 10.1091 22.6349 10.3218 22.6876C10.5344 22.7404 10.7575 22.7341 10.9669 22.6696L16.257 21.1632C16.4327 21.1215 16.5967 21.0409 16.737 20.9274C16.8774 20.8138 16.9904 20.6701 17.0677 20.507L28.0361 9.65479L25.9502 7.4144V7.53056L24.4821 6.06251H24.5983L22.6285 4.09398ZM1.00436 4.94293C0.718073 4.99738 0.460243 5.15125 0.276411 5.37737C0.0925779 5.60349 -0.00542849 5.8873 -0.000296494 6.17867V30.8934C-0.000296494 31.2211 0.129897 31.5354 0.361642 31.7672C0.593388 31.9989 0.907702 32.1291 1.23544 32.1291H25.9502C26.2779 32.1291 26.5922 31.9989 26.824 31.7672C27.0557 31.5354 27.1859 31.2211 27.1859 30.8934V17.3003C27.1859 16.9726 27.0557 16.6582 26.824 16.4265C26.5922 16.1947 26.2779 16.0646 25.9502 16.0646C25.6224 16.0646 25.3081 16.1947 25.0764 16.4265C24.8446 16.6582 24.7144 16.9726 24.7144 17.3003V29.6577H2.47118V7.4144H14.8285C15.1563 7.4144 15.4706 7.28421 15.7023 7.05246C15.9341 6.82072 16.0643 6.5064 16.0643 6.17867C16.0643 5.85093 15.9341 5.53661 15.7023 5.30487C15.4706 5.07312 15.1563 4.94293 14.8285 4.94293H1.23544C1.19674 4.94111 1.15798 4.94111 1.11928 4.94293C1.08058 4.94111 1.04182 4.94111 1.00312 4.94293H1.00436ZM13.1306 17.0692L14.8298 17.1841L14.9459 19.0377L13.2468 19.5394L12.5906 18.8845L13.1306 17.0692Z" fill="white" fill-opacity="0.5"/>
</svg>
