<svg width="32" height="32" viewBox="0 0 32 32" fill="none" xmlns="http://www.w3.org/2000/svg">
<g clip-path="url(#clip0_239_1917)">
<path d="M15.4409 14.842C16.4067 14.842 17.1924 14.0563 17.1924 13.0905C17.1924 12.1247 16.4067 11.339 15.4409 11.339C14.4751 11.339 13.6894 12.1247 13.6894 13.0905C13.6894 14.0563 14.4751 14.842 15.4409 14.842ZM15.4409 12.339C15.8553 12.339 16.1924 12.6761 16.1924 13.0905C16.1924 13.5049 15.8553 13.842 15.4409 13.842C15.0265 13.842 14.6894 13.5049 14.6894 13.0905C14.6894 12.6761 15.0266 12.339 15.4409 12.339ZM17.1509 15.3617H13.731C12.7593 15.3617 11.9688 16.1522 11.9688 17.1239V19.012C11.9688 19.2882 12.1927 19.512 12.4688 19.512H18.413C18.6892 19.512 18.913 19.2882 18.913 19.012V17.1239C18.913 16.1522 18.1225 15.3617 17.1509 15.3617ZM17.913 18.512H12.9688V17.1239C12.9688 16.7036 13.3107 16.3617 13.731 16.3617H17.1509C17.5711 16.3617 17.913 16.7036 17.913 17.1239V18.512H17.913ZM23.838 23.1465L21.0186 20.327C22.2133 18.9712 22.8664 17.2487 22.8664 15.4255C22.8664 13.4421 22.094 11.5774 20.6915 10.1749C19.289 8.77241 17.4243 8 15.4409 8C13.4575 8 11.5928 8.77241 10.1903 10.1749C8.78779 11.5774 8.01538 13.4421 8.01538 15.4255C8.01538 17.4089 8.78779 19.2737 10.1903 20.6762C11.5928 22.0787 13.4575 22.851 15.4409 22.851C17.2493 22.851 18.9589 22.2087 20.3096 21.0323L23.1309 23.8536C23.2285 23.9512 23.3565 24.0001 23.4844 24.0001C23.6124 24.0001 23.7403 23.9512 23.838 23.8536C24.0333 23.6583 24.0333 23.3417 23.838 23.1465ZM10.8974 19.969C9.68379 18.7554 9.01541 17.1418 9.01541 15.4255C9.01541 13.7092 9.68379 12.0956 10.8974 10.882C12.111 9.66838 13.7246 9 15.4409 9C17.1572 9 18.7708 9.66838 19.9844 10.882C21.198 12.0956 21.8664 13.7092 21.8664 15.4255C21.8664 17.1418 21.198 18.7554 19.9844 19.9691C17.4791 22.4743 13.4028 22.4744 10.8974 19.969Z" fill="#1DE9B6"/>
</g>
<circle cx="16" cy="16" r="16" fill="#1DE9B6" fill-opacity="0.2"/>
<defs>
<clipPath id="clip0_239_1917">
<rect width="32" height="16" fill="white" transform="translate(0 8)"/>
</clipPath>
</defs>
</svg>
