<svg width="23" height="17" viewBox="0 0 23 17" fill="none" xmlns="http://www.w3.org/2000/svg">
<path d="M22.3223 2.39418C21.501 2.71575 20.6183 2.93232 19.692 3.02994C20.6379 2.53035 21.3643 1.73872 21.7056 0.795324C20.8211 1.258 19.8408 1.59434 18.7972 1.77564C17.9629 0.990566 16.7715 0.5 15.4545 0.5C12.4977 0.5 10.325 2.93314 10.9928 5.45898C7.18777 5.29081 3.81339 3.68294 1.55419 1.23913C0.354366 3.05455 0.931955 5.42945 2.97072 6.63208C2.22107 6.61075 1.51419 6.42945 0.897541 6.12674C0.847316 7.99795 2.36802 9.74856 4.57048 10.1382C3.92593 10.2925 3.21999 10.3285 2.50195 10.2071C3.08419 11.8117 4.77511 12.9791 6.78039 13.0119C4.85509 14.3433 2.42941 14.9381 0 14.6854C2.02668 15.8314 4.43469 16.5 7.02035 16.5C15.5233 16.5 20.3272 10.1661 20.037 4.48523C20.9318 3.91509 21.7084 3.20386 22.3223 2.39418Z" fill="white"/>
</svg>
