<svg width="12" height="8" viewBox="0 0 12 8" fill="none" xmlns="http://www.w3.org/2000/svg">
<path d="M11.7628 7.29977C11.6047 7.46353 11.4176 7.54541 11.2013 7.54541C10.985 7.54541 10.798 7.46353 10.6403 7.29977L6.00791 2.50154L1.35968 7.31614C1.21212 7.46899 1.02767 7.54541 0.806324 7.54541C0.58498 7.54541 0.395257 7.46353 0.237154 7.29977C0.0790514 7.136 7.19428e-09 6.94211 9.86577e-09 6.71808C1.25373e-08 6.49406 0.0790514 6.30038 0.237154 6.13706L5.56522 0.634649C5.62846 0.569144 5.69697 0.522636 5.77075 0.495124C5.84453 0.467612 5.92358 0.454074 6.00791 0.454511C6.09223 0.454511 6.17128 0.468267 6.24506 0.495779C6.31884 0.523291 6.38735 0.569581 6.45059 0.634649L11.7787 6.15343C11.9262 6.30628 12 6.49471 12 6.71874C12 6.94277 11.9209 7.13644 11.7628 7.29977Z" fill="black"/>
</svg>
