<svg width="22" height="25" viewBox="0 0 22 25" fill="none" xmlns="http://www.w3.org/2000/svg">
<path d="M10.8772 12.6183C14.3486 12.6183 17.1863 9.78056 17.1863 6.30914C17.1863 2.83772 14.3486 0 10.8772 0C7.40578 0 4.56812 2.83772 4.56812 6.30914C4.56812 9.78056 7.40583 12.6183 10.8772 12.6183Z" fill="#898A8D"/>
<path d="M21.7048 17.6603C21.5394 17.247 21.3191 16.8613 21.0711 16.5031C19.8038 14.6297 17.8477 13.3899 15.6436 13.0868C15.3682 13.0593 15.0651 13.1144 14.8447 13.2797C13.6875 14.1338 12.31 14.5746 10.8773 14.5746C9.44466 14.5746 8.06714 14.1338 6.91 13.2797C6.68958 13.1144 6.38651 13.0317 6.11103 13.0868C3.90696 13.3899 1.92333 14.6297 0.683551 16.5031C0.435597 16.8613 0.215169 17.2746 0.0499008 17.6603C-0.0327333 17.8256 -0.00520618 18.0185 0.0774279 18.1838C0.297856 18.5695 0.573338 18.9552 0.821292 19.2858C1.20699 19.8093 1.62026 20.2776 2.08865 20.7184C2.47434 21.1041 2.91515 21.4623 3.356 21.8205C5.53249 23.446 8.14983 24.3 10.8498 24.3C13.5498 24.3 16.1671 23.4459 18.3436 21.8205C18.7844 21.4899 19.2252 21.1041 19.611 20.7184C20.0518 20.2776 20.4926 19.8092 20.8783 19.2858C21.1538 18.9276 21.4018 18.5695 21.6222 18.1838C21.7599 18.0185 21.7874 17.8256 21.7048 17.6603Z" fill="#898A8D"/>
</svg>
