<svg width="20" height="20" viewBox="0 0 20 20" fill="none" xmlns="http://www.w3.org/2000/svg">
<path d="M18.6957 0H1.30435C0.584 0 0 0.584 0 1.30435V18.6957C0 19.416 0.584 20 1.30435 20H18.6957C19.416 20 20 19.416 20 18.6957V1.30435C20 0.584 19.416 0 18.6957 0ZM14.6116 8.46278L9.69252 13.3817C9.18313 13.8911 8.35731 13.8911 7.84791 13.3817L5.38844 10.9223C4.87904 10.4129 4.87904 9.58704 5.38844 9.07765C5.89783 8.56826 6.72365 8.56826 7.23304 9.07765L8.77026 10.6149L12.767 6.61817C13.2764 6.10878 14.1023 6.10878 14.6117 6.61817C15.121 7.12757 15.121 7.95339 14.6116 8.46278Z" fill="#898A8D"/>
</svg>
