<svg width="736" height="131" viewBox="0 0 736 131" fill="none" xmlns="http://www.w3.org/2000/svg">
<path d="M226.756 128.82V31.0286H199.082V2.34985H285.465V31.0354H257.791V128.827H226.762L226.756 128.82Z" fill="#130C03"/>
<path d="M0.00195312 66.0908C0.00195312 26.8384 30.0253 0 67.9332 0C90.7444 0 111.376 9.22229 124.625 29.0183L97.2842 43.2728C89.9023 33.2084 80.3405 27.8434 68.2659 27.8434C46.9623 27.8434 32.0355 44.4476 32.0355 66.2538C32.0355 88.06 48.3069 104.331 67.2608 104.331C82.86 104.331 94.0992 94.9393 96.1094 82.5252V82.3555H69.6106V58.5391H130.832V63.9041C130.832 105.167 106.174 131 66.9281 131C29.8556 131 0.00195312 104.331 0.00195312 66.0908Z" fill="#130C03"/>
<path d="M152.115 128.82V2.34985H183.144V128.82H152.115Z" fill="#130C03"/>
<path d="M558.955 128.82V2.34985H589.984V128.82H558.955Z" fill="#130C03"/>
<path d="M705.453 2.34985H735.816V128.82H710.655L647.254 49.1472L647.756 128.82H617.23V2.34985H643.064L706.465 81.5203L705.46 2.34985H705.453Z" fill="#130C03"/>
<path d="M360.641 102.321C341.355 102.321 325.083 87.2246 325.083 65.5882C325.083 45.1267 340.682 28.8552 360.981 28.8552C370.977 28.8552 379.704 32.6378 386.054 38.8992C389.116 29.1201 393.884 19.9725 400.22 11.796C389.123 4.38694 375.623 0.169678 361.144 0.169678C323.908 0.169678 293.043 28.0131 293.043 65.4184C293.043 104.671 324.071 131 360.641 131C375.242 131 388.845 126.912 400.003 119.645C393.741 111.476 389.021 102.274 385.999 92.3722C379.555 98.6064 370.699 102.321 360.641 102.321Z" fill="#130C03"/>
<path d="M471.867 0.169678C448.499 0.169678 427.643 11.1373 415.344 28.5496C408.051 38.8856 403.766 51.4899 403.766 65.4184C403.766 79.3469 408.037 92.7525 415.277 103.075C427.548 120.576 448.363 131 471.364 131C508.769 131 539.635 104.162 539.635 65.7512C539.635 27.3408 508.939 0.169678 471.867 0.169678ZM471.364 102.321C452.077 102.321 435.806 87.2246 435.806 65.5882C435.806 45.1267 451.405 28.8552 471.704 28.8552C492.002 28.8552 507.601 44.9569 507.601 65.758C507.601 86.5591 492.002 102.321 471.371 102.321H471.364Z" fill="#130C03"/>
</svg>
