<?xml version="1.0" encoding="UTF-8"?><svg xmlns="http://www.w3.org/2000/svg" width="244" height="41" viewBox="0 0 244 41" fill="none"><path fill-rule="evenodd" clip-rule="evenodd" d="M22.2001 21.7832C20.9681 20.9802 18.7321 19.9672 15.4921 18.7442C12.2511 17.5212 10.0021 16.4232 8.74308 15.4502C7.48508 14.4772 6.85508 13.1332 6.85508 11.4192C6.85508 9.70522 7.49308 8.35322 8.77008 7.36222C10.0461 6.37122 11.7291 5.87622 13.8181 5.87622C15.9071 5.87622 17.6071 6.44322 18.9191 7.57622C20.2321 8.71022 20.8881 10.3212 20.8881 12.4102H26.0031C26.0031 8.82222 24.8151 6.01422 22.4411 3.98822C20.0661 1.96222 17.2061 0.949219 13.8581 0.949219C10.5111 0.949219 7.66708 1.89022 5.32908 3.77422C2.99008 5.65822 1.82108 8.18822 1.82108 11.3662C1.82108 13.8302 2.42708 15.7842 3.64208 17.2312C4.28408 17.9982 4.90008 18.6462 5.48908 19.1722C6.07908 19.6992 7.31908 20.4222 9.21208 21.3412C11.1041 22.2612 12.7111 22.8812 14.0321 23.2022C16.5751 24.2942 18.6601 25.1842 19.9911 26.1482C21.3201 27.1122 21.9861 28.4382 21.9861 30.1252C21.9861 31.8122 21.2941 33.1742 19.9101 34.2092C18.5271 35.2442 16.6171 35.7622 14.1801 35.7622C11.7431 35.7622 9.75608 35.1512 8.22108 33.9282C6.68508 32.7052 5.91808 30.9602 5.91808 28.6922H0.830078C0.830078 32.4952 2.13708 35.4592 4.75308 37.5832C7.36808 39.7082 10.5241 40.7702 14.2201 40.7702C17.9151 40.7702 20.9861 39.7972 23.4321 37.8512C25.8781 35.9052 27.0871 33.2542 27.0611 29.8972C27.0341 26.5412 25.4141 23.8362 22.2001 21.7832" fill="black"></path><path fill-rule="evenodd" clip-rule="evenodd" d="M56.0682 2.02832H30.8242V6.82832H40.9272V40.0543H45.9122V6.82832H56.0682V2.02832Z" fill="black"></path><path fill-rule="evenodd" clip-rule="evenodd" d="M69.2214 2.02832L55.1934 40.0543H60.5764C60.5764 40.0543 61.9434 35.8233 63.0524 34.0933C67.8714 26.5823 75.8834 25.6663 78.4584 25.7353L83.5934 40.0543H88.9764L74.9224 2.02832H69.2214ZM66.1634 24.4773L72.0854 7.96832L76.7254 20.9043C74.0794 21.0983 70.2224 21.8943 66.1634 24.4773V24.4773Z" fill="black"></path><path fill-rule="evenodd" clip-rule="evenodd" d="M154.659 2.02832H148.454L132.597 19.2643V2.02832H127.559V40.0543H132.597V21.8103L149.011 40.0543H155.189L137.874 20.5643L154.659 2.02832Z" fill="black"></path><path fill-rule="evenodd" clip-rule="evenodd" d="M179.663 25.4961L164.84 2.02808H159.139V40.0541H166.643V16.5331L181.413 40.0541H187.114V2.02808H179.663V25.4961Z" fill="black"></path><path fill-rule="evenodd" clip-rule="evenodd" d="M199.256 24.3558H212.674V17.3558H199.256V9.21481H214.026V2.02881H191.752V40.0538H214.291V32.8948H199.256V24.3558Z" fill="black"></path><path fill-rule="evenodd" clip-rule="evenodd" d="M218.143 2.02808V9.21508H227.264V40.0541H234.743V9.21508H243.917V2.02808H218.143Z" fill="black"></path><path fill-rule="evenodd" clip-rule="evenodd" d="M111.794 26.3648C111.026 25.6548 110.247 25.0378 109.466 24.4948C111.918 24.1328 114.56 22.7928 116.261 20.6168C117.812 18.6338 118.489 16.3208 118.489 13.8288C118.489 10.5578 117.331 7.77381 115.015 5.47581C112.699 3.17781 109.915 2.02881 106.662 2.02881H92.8203V40.0538H97.8583V25.7138C100.613 25.7778 104.71 26.4728 108.476 29.9528C112.087 33.2948 114.582 37.4468 115.867 40.0518H121.218C120.11 37.1738 116.935 31.1188 111.794 26.3648V26.3648ZM106.662 6.77481C108.536 6.77481 110.136 7.46081 111.462 8.82981C112.788 10.1998 113.45 11.8618 113.45 13.8148C113.45 15.7688 112.808 17.4638 111.462 18.8398C109.061 21.2938 103.512 20.8048 98.0073 20.8298C97.9573 20.8288 97.9073 20.8268 97.8583 20.8258V6.77481H106.662Z" fill="black"></path></svg> 
