<svg width="126" height="48" xmlns="http://www.w3.org/2000/svg"><path d="M62.38 22.992c-1.149-.476-2.551-.872-4.208-1.19h-.035c-1.609-.292-2.816-.56-3.621-.805-.805-.243-1.438-.573-1.9-.988-.461-.414-.691-.987-.691-1.72 0-1.073.39-1.89 1.171-2.45.782-.562 1.81-.843 3.088-.843 1.397 0 2.526.366 3.39 1.098A4.098 4.098 0 0161 18.6c.035.201.2.35.399.352l3.928.03a.415.415 0 00.41-.458 7.98 7.98 0 00-1.298-3.691c-.817-1.232-1.941-2.19-3.373-2.873-1.432-.683-3.059-1.025-4.882-1.025-1.727 0-3.283.33-4.668.989-1.384.658-2.46 1.573-3.23 2.744-.77 1.171-1.154 2.488-1.154 3.952 0 1.61.343 2.903 1.03 3.878a6.482 6.482 0 002.697 2.215c1.112.5 2.449.896 4.011 1.189l.178.036c1.655.317 2.893.598 3.71.842.816.244 1.46.585 1.934 1.024.473.44.71 1.037.71 1.794 0 1.074-.426 1.915-1.278 2.524-.852.61-1.953.915-3.302.915-1.61 0-2.91-.42-3.905-1.262-.904-.766-1.437-1.75-1.596-2.95a.414.414 0 00-.398-.367L47 28.396a.414.414 0 00-.414.449c.112 1.476.56 2.806 1.344 3.99.863 1.306 2.052 2.33 3.567 3.074 1.515.745 3.254 1.116 5.219 1.116 1.822 0 3.455-.34 4.899-1.024 1.443-.683 2.574-1.629 3.39-2.836.817-1.208 1.225-2.568 1.225-4.08 0-1.61-.355-2.91-1.065-3.898a6.36 6.36 0 00-2.786-2.196zM86.503 32.854h-.614c-.354 0-.633-.097-.834-.293-.201-.194-.302-.512-.302-.951v-6.99c0-2.22-.686-3.909-2.058-5.068-1.373-1.158-2.99-1.749-5.522-1.749-2.39 0-4.258.536-5.725 1.584-1.338.957-2.144 2.267-2.42 3.932a.419.419 0 00.402.496h3.608c.18 0 .342-.122.39-.302.165-.616.528-1.12 1.09-1.509.65-.451 1.424-.677 2.441-.677 1.92 0 3.285 1.22 3.285 3.037v.568c0 .232-.182.42-.407.42h-3.268c-2.65 0-4.663.537-6.035 1.61-1.373 1.075-2.059 2.6-2.059 4.574 0 1.709.627 3.05 1.882 4.026.941.731 2.066 1.153 3.224 1.338.885.142 1.794.193 2.68.047.93-.153 1.685-.548 2.44-1.111.679-.505 1.245-1.152 1.761-1.942.252-.446.913-.267.913.249v.62c0 1.128.886 2.042 1.98 2.042h3.148a.414.414 0 00.407-.42v-3.111a.414.414 0 00-.407-.42zm-6.258-3.769c0 .903-.184 1.69-.55 2.36-.77 1.406-2.145 2.14-3.693 2.14-.9 0-1.621-.219-2.165-.658-.545-.439-.817-1.024-.817-1.756 0-.83.302-1.47.905-1.921.604-.45 1.461-.677 2.574-.677h3.338c.226 0 .408.188.408.42v.092zM99.655 11.202H94.96c-2.476 0-4.484 2.07-4.484 4.622v2.031c0 .233-.182.42-.408.42h-2.68a.414.414 0 00-.408.42v3.149c0 .232.182.42.408.42h2.68c.226 0 .408.188.408.42v13.702c0 .232.182.42.407.42h3.658a.414.414 0 00.408-.42V22.684c0-.232.182-.42.408-.42h4.262a.414.414 0 00.408-.42v-3.148a.414.414 0 00-.408-.42h-4.262a.414.414 0 01-.408-.42V16.03c0-.464.365-.84.815-.84h3.89a.414.414 0 00.408-.42v-3.148a.414.414 0 00-.408-.42h.001zM117.575 22.06a8.101 8.101 0 00-3.248-3.148c-1.372-.731-2.959-1.108-4.756-1.108-1.798 0-3.35.407-4.722 1.2-1.373.793-2.438 1.915-3.195 3.366-.757 1.452-1.136 3.153-1.136 5.105 0 1.952.391 3.58 1.171 5.032a8.061 8.061 0 003.355 3.348c1.455.78 3.165 1.17 5.13 1.17 1.514 0 2.869-.286 4.065-.859 1.194-.572 2.159-1.36 2.892-2.36a7.49 7.49 0 001.286-2.812.418.418 0 00-.397-.518h-3.674a.41.41 0 00-.387.29c-.259.789-.716 1.412-1.371 1.869-.734.512-1.645.768-2.734.768-.899 0-1.686-.195-2.36-.585a4.207 4.207 0 01-1.598-1.647 5.158 5.158 0 01-.38-.878 6.256 6.256 0 01-.239-1.005c-.018-.119-.035-.24-.049-.36a.415.415 0 01.405-.465h12.672a.41.41 0 00.405-.368c.018-.154.03-.312.036-.474.012-.292.018-.56.018-.804 0-1.805-.397-3.39-1.189-4.757zm-3.807 3.219h-7.937a.417.417 0 01-.399-.51 4.49 4.49 0 01.659-1.557 3.997 3.997 0 011.562-1.373 4.644 4.644 0 012.094-.476c1.231 0 2.249.342 3.053 1.025.691.586 1.146 1.379 1.366 2.378a.418.418 0 01-.398.513zM37.46 23.997h-3.48c-1.038 0-1.88.868-1.88 1.94v5.205c0 1.07-.842 1.939-1.881 1.939H16.378c-1.04 0-1.881.867-1.881 1.938v3.587c0 1.07.842 1.939 1.88 1.939H31.02c1.039 0 1.869-.868 1.869-1.94v-2.877c0-1.07.842-1.83 1.881-1.83h2.69c1.038 0 1.88-.868 1.88-1.94v-6.044c0-1.071-.842-1.917-1.88-1.917zM14.496 16.873c0-1.071.842-1.939 1.881-1.939H30.21c1.039 0 1.88-.868 1.88-1.939V9.41c0-1.071-.841-1.94-1.88-1.94H15.575c-1.039 0-1.88.869-1.88 1.94v2.763c0 1.071-.843 1.94-1.882 1.94H9.136c-1.039 0-1.88.867-1.88 1.938v6.051c0 1.071.845 1.896 1.884 1.896h3.479c1.039 0 1.88-.868 1.88-1.94l-.003-5.183v-.001zM21.66 20.228h3.342c1.09 0 1.973.911 1.973 2.033v3.445c0 1.122-.884 2.033-1.973 2.033h-3.341c-1.09 0-1.973-.912-1.973-2.033V22.26c0-1.123.884-2.033 1.973-2.033z"/></svg>