<svg width="233" height="222" viewBox="0 0 233 222" fill="none" xmlns="http://www.w3.org/2000/svg">
<path d="M0 111C0.260425 150.694 20.6502 188.712 51.9759 207.851C65.6358 216.851 84.4032 222 103.471 222C116.59 222 128.868 219.545 138.983 214.915C159.713 205.456 174.454 190.049 184.068 167.837L186.552 162.109L200.633 219.106H233C228.093 201.385 205.48 124.191 205.48 111C205.48 97.8085 228.093 20.6154 233 2.89374H200.633L186.552 59.8905L184.068 54.1629C174.454 31.931 159.713 16.5442 138.983 7.08468C128.868 2.45469 116.59 0 103.471 0C84.4032 0 65.6559 5.14887 52.0361 14.1095C20.6703 33.2681 0.260425 71.3058 0 111.02V111ZM62.1307 42.4881C73.1667 34.7648 87.0471 30.514 101.228 30.514C113.946 30.514 125.864 33.9266 135.698 40.3727C157.83 54.9013 169.547 79.3085 169.547 110.98C169.547 142.652 157.85 167.059 135.698 181.587C125.864 188.033 113.946 191.446 101.228 191.446C87.0471 191.446 73.1667 187.195 62.1307 179.472C43.6037 166.5 32.5476 140.895 32.5875 110.98C32.5476 81.0647 43.6037 55.4601 62.1307 42.4881Z" fill="white"/>
</svg>
