<?xml version="1.0" encoding="UTF-8"?>
<svg id="Layer_2" data-name="Layer 2" xmlns="http://www.w3.org/2000/svg" viewBox="0 0 799.61 87.67">
  <defs>
    <style>
      .cls-1 {
        fill: #fff;
        stroke-width: 0px;
      }
    </style>
  </defs>
  <g id="Layer_1-2" data-name="Layer 1">
    <path class="cls-1" d="M709.23,43.83c.1,15.39,8.01,30.12,20.16,37.54,5.3,3.49,12.58,5.48,19.97,5.48,5.09,0,9.85-.95,13.77-2.75,8.04-3.67,13.76-9.64,17.49-18.25l.96-2.22,5.46,22.09h12.55c-1.9-6.87-10.67-36.79-10.67-41.9s8.77-35.03,10.67-41.9h-12.55l-5.46,22.09-.96-2.22c-3.73-8.62-9.45-14.58-17.49-18.25-3.92-1.79-8.68-2.75-13.77-2.75-7.4,0-14.67,2-19.95,5.47-12.17,7.43-20.08,22.17-20.18,37.56h0ZM733.33,17.28c4.28-2.99,9.67-4.64,15.17-4.64,4.93,0,9.56,1.32,13.37,3.82,8.58,5.63,13.13,15.09,13.13,27.37s-4.54,21.74-13.13,27.37c-3.81,2.5-8.44,3.82-13.37,3.82-5.5,0-10.88-1.65-15.17-4.64-7.19-5.03-11.47-14.95-11.46-26.55-.02-11.59,4.27-21.52,11.46-26.55ZM88.71,1.58v84.88h-12.55V15.89l-25.35,70.57h-13.28L12.55,16.49v69.96H0V1.58h18.89l25.35,71.54L69.83,1.58h18.89,0ZM361.56,1.58v84.88h-15.72l-40.69-68.87v68.87h-12.67V1.58h16.82l39.61,66.82V1.58h12.67,0ZM143.6,11.31c8.73,0,16.94,3.39,23.11,9.53,6.18,6.14,9.58,14.32,9.58,23s-3.4,16.85-9.58,23c-6.18,6.14-14.39,9.53-23.11,9.53s-16.94-3.39-23.11-9.53c-6.18-6.14-9.58-14.32-9.58-23s3.4-16.85,9.58-23c6.18-6.14,14.39-9.53,23.11-9.53ZM143.6,0c-24.33,0-44.05,19.62-44.05,43.83s19.72,43.83,44.05,43.83,44.05-19.62,44.05-43.83S167.92,0,143.6,0ZM237.9,11.31c8.73,0,16.94,3.39,23.11,9.53,6.18,6.14,9.58,14.32,9.58,23s-3.4,16.85-9.58,23c-6.18,6.14-14.39,9.53-23.11,9.53s-16.94-3.39-23.11-9.53c-6.18-6.14-9.58-14.32-9.58-23s3.4-16.85,9.58-23c6.18-6.14,14.39-9.53,23.11-9.53ZM237.9,0c-24.33,0-44.05,19.62-44.05,43.83s19.72,43.83,44.05,43.83,44.05-19.62,44.05-43.83S262.22,0,237.9,0ZM426.4,42.44c8.78,3.4,14.02,10.67,14.02,20.49,0,14.07-10.85,23.52-27.43,23.52h-37.31V1.58h35.73c15.97,0,26.7,8.97,26.7,22.19,0,8.49-4.27,15.16-11.7,18.67ZM425.18,25.22c0-7.52-5.61-12.61-14.14-12.61h-22.31v25.1h22.31c8.54,0,14.14-5.09,14.14-12.49ZM412.38,75.3c9.27,0,15-5.46,15-13.46s-5.85-13.34-15.12-13.34h-23.53v26.8h23.65ZM512.06,86.46l-7.32-19.04h-39.14l-7.32,19.04h-13.66L478.4,1.58h13.78l33.65,84.88h-13.78ZM469.75,56.75h30.97l-15.49-40.5-15.48,40.5ZM562.47,87.67c-17.68,0-29.26-9.22-32.68-24.25l11.34-3.4c3.05,10.91,10.61,16.61,22.19,16.61s19.88-5.21,19.88-12.97c0-22.8-49.75-4.12-49.75-38.56,0-14.91,12.32-25.1,29.99-25.1,15.85,0,26.21,8.37,30.12,21.22l-11.71,3.27c-2.8-8.25-9.51-13.46-19.14-13.46-10.49,0-16.95,5.46-16.95,12.85,0,22.07,50.11,3.64,50.11,38.07,0,16.01-13.53,25.71-33.41,25.71ZM621.54,75.06h44.87v11.4h-57.92V1.58h57.43v11.4h-44.38v24.49h39.99v11.4h-39.99v26.19Z"/>
  </g>
</svg>