<svg width="16" height="17" viewBox="0 0 16 17" fill="none" xmlns="http://www.w3.org/2000/svg">
<circle cx="8.00004" cy="8.40251" r="6.66667" fill="white"/>
<path d="M8.00004 1.73584C6.6815 1.73584 5.39257 2.12683 4.29624 2.85938C3.19991 3.59192 2.34543 4.63311 1.84085 5.85128C1.33626 7.06946 1.20424 8.4099 1.46148 9.70311C1.71871 10.9963 2.35365 12.1842 3.286 13.1165C4.21835 14.0489 5.40623 14.6838 6.69944 14.9411C7.99265 15.1983 9.33309 15.0663 10.5513 14.5617C11.7694 14.0571 12.8106 13.2026 13.5432 12.1063C14.2757 11.01 14.6667 9.72105 14.6667 8.4025C14.6648 6.63497 13.9619 4.94036 12.712 3.69052C11.4622 2.44068 9.76758 1.73771 8.00004 1.73584ZM10.927 7.22686L7.33722 10.8166C7.28959 10.8643 7.23304 10.9021 7.17078 10.9279C7.10853 10.9537 7.04179 10.967 6.9744 10.967C6.90701 10.967 6.84028 10.9537 6.77802 10.9279C6.71577 10.9021 6.65921 10.8643 6.61158 10.8166L5.07312 9.27815C4.97689 9.18192 4.92283 9.05141 4.92283 8.91533C4.92283 8.77924 4.97689 8.64873 5.07312 8.5525C5.16935 8.45628 5.29986 8.40222 5.43594 8.40222C5.57202 8.40222 5.70253 8.45628 5.79876 8.5525L6.9744 9.72879L10.2013 6.50122C10.249 6.45358 10.3055 6.41578 10.3678 6.39C10.43 6.36421 10.4968 6.35094 10.5641 6.35094C10.6315 6.35094 10.6982 6.36421 10.7605 6.39C10.8228 6.41578 10.8793 6.45358 10.927 6.50122C10.9746 6.54887 11.0124 6.60543 11.0382 6.66769C11.064 6.72994 11.0772 6.79666 11.0772 6.86404C11.0772 6.93143 11.064 6.99815 11.0382 7.0604C11.0124 7.12265 10.9746 7.17922 10.927 7.22686Z" fill="#47CD89"/>
</svg>
