<?xml version="1.0" encoding="UTF-8"?>
<!DOCTYPE svg PUBLIC "-//W3C//DTD SVG 1.1//EN" "http://www.w3.org/Graphics/SVG/1.1/DTD/svg11.dtd">
<svg xmlns="http://www.w3.org/2000/svg" version="1.1" width="506px" height="162px" style="shape-rendering:geometricPrecision; text-rendering:geometricPrecision; image-rendering:optimizeQuality; fill-rule:evenodd; clip-rule:evenodd" xmlns:xlink="http://www.w3.org/1999/xlink">
<g><path style="opacity:0.989" fill="#c9e8ff" d="M 51.5,-0.5 C 53.8333,-0.5 56.1667,-0.5 58.5,-0.5C 61.2562,4.01594 64.2562,8.34927 67.5,12.5C 79.9918,8.52495 92.4918,8.52495 105,12.5C 106.261,12.2409 107.261,11.5742 108,10.5C 109.674,6.47583 111.841,2.80916 114.5,-0.5C 116.833,-0.5 119.167,-0.5 121.5,-0.5C 123.798,3.09074 125.132,7.09074 125.5,11.5C 139.682,7.75666 154.015,6.92332 168.5,9C 170.286,9.78451 171.786,10.9512 173,12.5C 174.232,20.1371 172.232,26.8037 167,32.5C 159.572,40.9302 150.739,47.4302 140.5,52C 139.299,52.9025 138.465,54.0692 138,55.5C 137.833,70.5111 137.333,85.5111 136.5,100.5C 112.588,87.1157 87.2549,83.6157 60.5,90C 51.8942,92.1367 43.8942,95.6367 36.5,100.5C 35.6672,85.5111 35.1672,70.5111 35,55.5C 34.5348,54.0692 33.7014,52.9025 32.5,52C 17.7374,45.7314 6.73745,35.5648 -0.5,21.5C -0.5,18.5 -0.5,15.5 -0.5,12.5C 0.748938,10.8639 2.4156,9.69724 4.5,9C 18.9719,7.0698 33.3052,7.90314 47.5,11.5C 47.8685,7.09074 49.2018,3.09074 51.5,-0.5 Z M 53.5,44.5 C 63.7484,44.9575 72.0817,49.1242 78.5,57C 69.3626,62.9522 59.8626,63.7855 50,59.5C 46.0183,53.2348 47.185,48.2348 53.5,44.5 Z M 112.5,44.5 C 124.312,44.4506 127.646,49.6173 122.5,60C 112.954,63.617 103.787,62.7837 95,57.5C 95.1953,55.255 96.3619,53.4216 98.5,52C 103.101,49.2021 107.768,46.7021 112.5,44.5 Z"/></g>
<g><path style="opacity:0.984" fill="#cae8ff" d="M 211.5,15.5 C 230.593,15.0254 249.593,15.5254 268.5,17C 272.699,22.2814 272.366,27.2814 267.5,32C 250.233,33.2919 232.899,33.9586 215.5,34C 211.028,35.2619 209.028,38.2619 209.5,43C 209.098,47.2003 210.765,50.2003 214.5,52C 231.899,52.0414 249.233,52.7081 266.5,54C 271.609,57.3662 272.776,61.8662 270,67.5C 269.097,68.7014 267.931,69.5348 266.5,70C 247.833,70.6667 229.167,70.6667 210.5,70C 199.275,68.435 192.108,62.2683 189,51.5C 185.199,32.0516 192.699,20.0516 211.5,15.5 Z"/></g>
<g><path style="opacity:0.978" fill="#c9e8ff" d="M 303.5,15.5 C 315.505,15.3335 327.505,15.5001 339.5,16C 336.167,21.6667 332.833,27.3333 329.5,33C 321.833,33.3333 314.167,33.6667 306.5,34C 300.786,37.4766 299.286,42.31 302,48.5C 303.214,50.0488 304.714,51.2155 306.5,52C 310.211,52.1747 313.878,52.6747 317.5,53.5C 314.5,58.8333 311.5,64.1667 308.5,69.5C 290.473,70.3008 280.806,61.6341 279.5,43.5C 280.041,27.6344 288.041,18.3011 303.5,15.5 Z"/></g>
<g><path style="opacity:0.976" fill="#c9e8ff" d="M 505.5,24.5 C 505.5,25.1667 505.5,25.8333 505.5,26.5C 496.66,41.6378 486.66,56.1378 475.5,70C 471.705,70.8372 468.039,70.5039 464.5,69C 458.791,62.9596 453.457,56.6263 448.5,50C 445.134,48.1211 441.8,48.1211 438.5,50C 432.98,56.0191 427.647,62.1857 422.5,68.5C 416.235,71.8213 410.735,70.8213 406,65.5C 398.333,54.1667 390.667,42.8333 383,31.5C 379.46,20.0444 383.626,14.8778 395.5,16C 397.624,17.1217 399.457,18.6217 401,20.5C 404,25.1667 407,29.8333 410,34.5C 413.585,38.4393 417.751,39.2727 422.5,37C 427.212,31.9566 431.545,26.6233 435.5,21C 441.465,17.2684 446.965,17.7684 452,22.5C 455.138,27.2714 458.638,31.7714 462.5,36C 467.44,39.4734 471.94,38.9734 476,34.5C 479.77,27.4389 484.603,21.2723 490.5,16C 498.301,14.2265 503.301,17.0599 505.5,24.5 Z"/></g>
<g><path style="opacity:0.982" fill="#cae8ff" d="M 345.5,15.5 C 369.111,16.9456 378.611,29.2789 374,52.5C 370.438,62.7258 363.271,68.5591 352.5,70C 339.833,70.6667 327.167,70.6667 314.5,70C 317.833,64.3333 321.167,58.6667 324.5,53C 332.5,52.6667 340.5,52.3333 348.5,52C 355.63,47.134 356.297,41.4674 350.5,35C 345.909,33.9474 341.242,33.114 336.5,32.5C 339.78,26.9379 342.78,21.2712 345.5,15.5 Z"/></g>
<g><path style="opacity:0.913" fill="#c9e8ff" d="M 461.5,88.5 C 463.5,88.5 465.5,88.5 467.5,88.5C 467.5,107.5 467.5,126.5 467.5,145.5C 465.167,145.5 462.833,145.5 460.5,145.5C 460.18,126.424 460.513,107.424 461.5,88.5 Z"/></g>
<g><path style="opacity:0.95" fill="#c9e8ff" d="M 188.5,91.5 C 197.173,91.3336 205.84,91.5002 214.5,92C 224.071,95.9866 227.571,103.153 225,113.5C 222.844,120.652 218.01,124.485 210.5,125C 205.511,125.499 200.511,125.666 195.5,125.5C 195.5,132.167 195.5,138.833 195.5,145.5C 193.167,145.5 190.833,145.5 188.5,145.5C 188.5,127.5 188.5,109.5 188.5,91.5 Z M 195.5,98.5 C 201.176,98.3339 206.843,98.5006 212.5,99C 216.235,100.8 217.902,103.8 217.5,108C 217.902,112.2 216.235,115.2 212.5,117C 206.928,118.351 201.262,118.851 195.5,118.5C 195.5,111.833 195.5,105.167 195.5,98.5 Z"/></g>
<g><path style="opacity:0.988" fill="#c9e8ff" d="M 100.5,161.5 C 91.1667,161.5 81.8333,161.5 72.5,161.5C 55.7952,159.731 41.6286,152.731 30,140.5C 23.5586,129.801 24.5586,119.801 33,110.5C 48.4667,98.3742 66.1334,92.3742 86,92.5C 102.124,92.6558 117.29,96.4892 131.5,104C 150.505,117.298 151.838,131.965 135.5,148C 124.709,154.982 113.042,159.482 100.5,161.5 Z M 52.5,112.5 C 53.4959,112.414 54.3292,112.748 55,113.5C 55.8354,121.112 59.1687,122.445 65,117.5C 65.8195,125.042 62.1528,129.708 54,131.5C 49.8533,130.514 47.6866,127.847 47.5,123.5C 48.3643,119.44 50.031,115.773 52.5,112.5 Z M 118.5,112.5 C 120.017,112.511 121.184,113.177 122,114.5C 125.259,118.894 125.925,123.561 124,128.5C 118.265,132.52 113.265,131.52 109,125.5C 107.659,122.978 106.826,120.311 106.5,117.5C 109.354,118.931 112.354,119.764 115.5,120C 116.601,117.528 117.601,115.028 118.5,112.5 Z"/></g>
<g><path style="opacity:0.961" fill="#c9e8ff" d="M 310.5,94.5 C 312.436,98.7147 313.103,103.381 312.5,108.5C 316.5,108.5 320.5,108.5 324.5,108.5C 324.5,110.5 324.5,112.5 324.5,114.5C 320.5,114.5 316.5,114.5 312.5,114.5C 312.334,122.174 312.5,129.841 313,137.5C 316.056,140.006 319.223,140.006 322.5,137.5C 323.395,139.246 324.062,141.08 324.5,143C 319.978,146.585 314.978,147.251 309.5,145C 307.951,143.786 306.785,142.286 306,140.5C 305.5,131.84 305.334,123.173 305.5,114.5C 303.833,114.5 302.167,114.5 300.5,114.5C 300.5,112.5 300.5,110.5 300.5,108.5C 302.167,108.5 303.833,108.5 305.5,108.5C 305.5,104.167 305.5,99.8333 305.5,95.5C 307.415,95.7845 309.081,95.4511 310.5,94.5 Z"/></g>
<g><path style="opacity:0.942" fill="#c9e8ff" d="M 272.5,107.5 C 290.781,107.609 298.281,116.609 295,134.5C 289.454,145.018 280.954,148.518 269.5,145C 257.569,138.542 254.403,129.042 260,116.5C 263.228,112.092 267.395,109.092 272.5,107.5 Z M 272.5,114.5 C 286.837,114.332 291.67,120.999 287,134.5C 279.668,141.459 272.668,141.126 266,133.5C 262.921,125.235 265.087,118.902 272.5,114.5 Z"/></g>
<g><path style="opacity:0.927" fill="#c9e8ff" d="M 343.5,107.5 C 361.154,107.323 368.654,115.99 366,133.5C 362.571,141.638 356.405,145.972 347.5,146.5C 330.795,143.593 324.961,133.926 330,117.5C 333.061,112.069 337.561,108.735 343.5,107.5 Z M 343.5,114.5 C 355.816,113.649 360.983,119.316 359,131.5C 355.128,138.603 349.295,140.77 341.5,138C 338.619,136.749 336.786,134.583 336,131.5C 333.994,123.641 336.494,117.975 343.5,114.5 Z"/></g>
<g><path style="opacity:0.91" fill="#c9e8ff" d="M 387.5,107.5 C 395.632,105.91 402.299,108.243 407.5,114.5C 406.055,116.063 404.389,117.396 402.5,118.5C 395.352,112.899 388.519,113.232 382,119.5C 377.938,130.384 381.438,137.051 392.5,139.5C 396.353,138.999 399.853,137.666 403,135.5C 407.083,136.807 407.916,138.974 405.5,142C 395.27,148.583 385.77,147.75 377,139.5C 369.456,124.997 372.956,114.33 387.5,107.5 Z"/></g>
<g><path style="opacity:0.906" fill="#c9e8ff" d="M 425.5,107.5 C 445.466,105.962 453.633,114.962 450,134.5C 442.875,146.409 433.041,149.242 420.5,143C 410.864,133.599 410.03,123.433 418,112.5C 420.479,110.686 422.979,109.019 425.5,107.5 Z M 427.5,114.5 C 442.534,114.55 447.034,121.55 441,135.5C 433.29,141.358 426.623,140.358 421,132.5C 418.511,124.798 420.678,118.798 427.5,114.5 Z"/></g>
<g><path style="opacity:0.965" fill="#c9e8ff" d="M 249.5,107.5 C 251.167,107.5 252.833,107.5 254.5,107.5C 254.5,110.167 254.5,112.833 254.5,115.5C 248.796,114.436 244.629,116.436 242,121.5C 240.679,129.439 240.179,137.439 240.5,145.5C 238.167,145.5 235.833,145.5 233.5,145.5C 233.5,133.167 233.5,120.833 233.5,108.5C 235.833,108.5 238.167,108.5 240.5,108.5C 240.34,110.199 240.506,111.866 241,113.5C 243.322,110.605 246.155,108.605 249.5,107.5 Z"/></g>
</svg>
