<svg class="block w-auto h-full max-h-[24px]" width="149" height="40" xmlns="http://www.w3.org/2000/svg" viewBox="0 0 149 40" fill="#FFF">
  <path fill-rule="evenodd" clip-rule="evenodd" d="M121.003 38.52c2.446.998 5.068 1.5 7.712 1.479a19.969 19.969 0 0 0 7.716-1.47 19.894 19.894 0 0 0 6.543-4.33 19.798 19.798 0 0 0 4.35-6.514c1-2.438 1.503-5.05 1.477-7.683a19.736 19.736 0 0 0-1.476-7.684 19.819 19.819 0 0 0-4.349-6.516 19.905 19.905 0 0 0-6.544-4.33A19.968 19.968 0 0 0 128.715 0a20.004 20.004 0 0 0-7.712 1.479 19.93 19.93 0 0 0-6.538 4.33 19.84 19.84 0 0 0-4.35 6.51 19.768 19.768 0 0 0-1.487 7.678 19.79 19.79 0 0 0 5.836 14.19 19.922 19.922 0 0 0 6.539 4.332Zm22.706-18.522c0 8.5-6.458 15.205-14.994 15.205-8.483 0-14.941-6.702-14.941-15.205s6.458-15.204 14.941-15.204c8.536 0 14.994 6.705 14.994 15.204Z" fill="#FFF"/>
  <path d="M98.458 39.142h5.221V8.519a7.976 7.976 0 0 0-2.351-5.64A8.04 8.04 0 0 0 95.665.54a8.072 8.072 0 0 0-4.293 1.25 8.021 8.021 0 0 0-2.96 3.337L76.019 31.394a2.801 2.801 0 0 1-5.108-.118 2.774 2.774 0 0 1-.213-1.065V11.108a10.557 10.557 0 0 0-3.112-7.47A10.647 10.647 0 0 0 60.084.54a10.647 10.647 0 0 0-7.5 3.1 10.556 10.556 0 0 0-3.11 7.468v28.03h5.22v-28.03a5.365 5.365 0 0 1 1.581-3.794 5.411 5.411 0 0 1 3.809-1.576c1.43.002 2.8.568 3.81 1.575a5.365 5.365 0 0 1 1.582 3.795v19.103a7.97 7.97 0 0 0 2.35 5.641 8.04 8.04 0 0 0 5.664 2.34 8.069 8.069 0 0 0 4.293-1.249 8.024 8.024 0 0 0 2.96-3.338L93.136 7.337a2.803 2.803 0 0 1 4.502-.783 2.78 2.78 0 0 1 .819 1.965v30.623ZM37.386.557h5.06v38.588h-5.06V.557Z" fill="#FFF"/>
  <path fill-rule="evenodd" clip-rule="evenodd" d="M31.966 19.85c0-11.035-8.733-19.293-20.63-19.293H0v38.555h5.278l6.058.033c11.897 0 20.63-8.26 20.63-19.296ZM5.278 5.285h6.058c9.333 0 15.498 6.196 15.498 14.563 0 8.368-6.165 14.568-15.498 14.568H5.278V5.286Z" fill="#FFF"/>
</svg>
